HIERARCHY
ROOT Bone_Base
{
	OFFSET -3 -10 -40
	CHANNELS 6 Xposition Yposition Zposition Zrotation Yrotation Xrotation
	JOINT Bone_Trunk
	{
		OFFSET -5.825476 3.965237 102.032760
		CHANNELS 3 Zrotation Yrotation Xrotation
		JOINT Bone_Hip
		{
			OFFSET 14.049603 4.780318 53.331006
			CHANNELS 3 Zrotation Yrotation Xrotation
			JOINT Bone_Torso
			{
				OFFSET -19.875079 -0.815081 48.701763
				CHANNELS 3 Zrotation Yrotation Xrotation
				JOINT Bone_Shoulder_L
				{
					OFFSET -7.312895 1.614314 37.617803
					CHANNELS 3 Zrotation Yrotation Xrotation
					JOINT Bone_Arm_L
					{
						OFFSET 26.428109 -2.880889 -1.154172
						CHANNELS 3 Zrotation Yrotation Xrotation
						JOINT Bone_Forearm_L
						{
							OFFSET 32.937623 4.747575 26.970470
							CHANNELS 3 Zrotation Yrotation Xrotation
							JOINT Bone_Hand_L
							{
								OFFSET -11.464705 -6.068563 36.745137
								CHANNELS 3 Zrotation Yrotation Xrotation
								JOINT Bone_Hand_L.001
								{
									OFFSET 10.328034 1.857357 28.335679
									CHANNELS 3 Zrotation Yrotation Xrotation
									End Site
									{
										OFFSET 8.604929 -1.075437 4.760778
									}
								}
							}
						}
					}
				}
				JOINT Bone_Shoulder_R
				{
					OFFSET -7.312895 1.614314 37.617803
					CHANNELS 3 Zrotation Yrotation Xrotation
					JOINT Bone_Arm_R
					{
						OFFSET -15.571216 -0.198424 1.768148
						CHANNELS 3 Zrotation Yrotation Xrotation
						JOINT Bone_Forearm_R
						{
							OFFSET -27.306356 -0.828655 -33.424687
							CHANNELS 3 Zrotation Yrotation Xrotation
							JOINT Bone_Hand_R
							{
								OFFSET -31.844969 0.886025 -1.609164
								CHANNELS 3 Zrotation Yrotation Xrotation
								JOINT Bone_Hand_R.001
								{
									OFFSET -13.652372 -3.561596 -12.327343
									CHANNELS 3 Zrotation Yrotation Xrotation
									End Site
									{
										OFFSET -7.406867 3.311480 -15.993798
									}
								}
							}
						}
					}
				}
				JOINT Bone_Neck
				{
					OFFSET -7.312895 1.614314 37.617803
					CHANNELS 3 Zrotation Yrotation Xrotation
					JOINT Bone_Head
					{
						OFFSET 2.404062 -4.111349 23.187053
						CHANNELS 3 Zrotation Yrotation Xrotation
						JOINT Bone_Hair
						{
							OFFSET -10.808413 -4.836011 28.511292
							CHANNELS 3 Zrotation Yrotation Xrotation
							End Site
							{
								OFFSET -11.180915 4.140832 30.110800
							}
						}
						JOINT Bone_Ear_L
						{
							OFFSET -10.808413 -4.836011 28.511292
							CHANNELS 3 Zrotation Yrotation Xrotation
							JOINT Bone_Ear_L.001
							{
								OFFSET 19.822566 -5.420644 7.619798
								CHANNELS 3 Zrotation Yrotation Xrotation
								End Site
								{
									OFFSET 8.457186 -1.261548 2.769828
								}
							}
						}
						JOINT Bone_Ear_R
						{
							OFFSET -10.808413 -4.836011 28.511292
							CHANNELS 3 Zrotation Yrotation Xrotation
							JOINT Bone_Ear_R.001
							{
								OFFSET -20.154865 7.907715 -6.604886
								CHANNELS 3 Zrotation Yrotation Xrotation
								End Site
								{
									OFFSET -6.529886 8.646715 -3.674161
								}
							}
						}
					}
				}
			}
		}
	}
}
MOTION
Frames: 6
Frame Time: 0.01
29.233398 -9.233962 9.998515 0.000000 0.000000 0.000000 -0.528732 -2.824940 4.094751 -7.714642 17.834923 -4.724421 0.370948 -11.599876 1.188542 7.266079 -7.769523 5.601074 292.656886 30.479548 339.208477 -176.453702 -37.189598 -32.739303 16.583983 -51.260177 35.317863 -0.000003 -0.000003 -0.000001 11.850604 -40.929427 -12.862121 -24.928635 60.436150 -59.525761 73.471607 -18.354930 -3.110818 23.141772 23.409411 39.323889 4.899122 11.515527 -14.555113 -18.858992 -8.731472 3.078392 20.682800 20.932932 16.701623 0.000000 -0.000001 -0.000003 -3.391875 5.741645 -3.301560 -0.000000 -0.000001 -0.000004 0.000002 -0.000001 -0.000001 0.000003 -0.000003 0.000001 
29.233398 -9.233962 9.998515 0.000000 0.000000 0.000000 -0.529283 -2.815930 4.096959 -7.497108 16.973787 -4.879876 0.370946 -11.599872 1.188542 7.341314 -7.726706 5.646998 292.402447 30.738074 339.488433 -179.778434 -40.817733 -30.061780 17.743008 -50.758868 35.411420 0.000002 0.000002 -0.000004 11.850605 -40.929427 -12.862122 -25.498083 61.469380 -60.029501 74.096235 -17.655435 -3.267099 21.888731 23.018513 39.057166 4.901624 11.524256 -14.565460 -19.123630 -8.782612 3.123942 20.626148 20.905271 17.769943 0.000006 0.000000 -0.000000 -3.391871 5.741643 -3.301556 0.000000 0.000002 0.000004 0.000003 -0.000001 0.000003 0.000002 -0.000001 -0.000001 
29.233398 -9.233962 9.998515 0.000000 0.000000 0.000000 -0.501813 -3.117418 4.009717 -7.563552 17.602642 -4.792603 0.370946 -11.599875 1.188542 7.416579 -7.683941 5.692982 292.197351 30.985621 339.753690 -177.904722 -39.122897 -31.560504 16.792812 -51.056340 35.536624 0.000005 -0.000001 -0.000004 11.850604 -40.929427 -12.862121 -24.987185 60.416582 -59.542645 72.284650 -18.660039 -2.317762 21.367863 22.757278 38.762645 4.806022 11.195168 -14.175173 -19.388554 -8.833576 3.169773 21.506345 21.244929 17.904236 0.000003 0.000000 -0.000003 -3.391877 5.741643 -3.301554 -0.000002 -0.000001 0.000001 0.000001 -0.000003 0.000001 0.000000 0.000001 -0.000002 
29.233398 -9.233962 9.998515 0.000000 0.000000 0.000000 -0.416545 -4.022213 3.746768 -7.758693 19.493882 -4.532898 0.370946 -11.599875 1.188544 7.491879 -7.641234 5.739014 291.987500 31.215047 339.999632 -172.697891 -33.647120 -35.583032 13.885263 -51.944207 35.966994 0.000000 -0.000001 0.000003 11.850607 -40.929427 -12.862120 -23.635212 57.227075 -58.263938 66.561607 -21.593479 0.801630 20.946032 22.492597 38.482163 4.505724 10.210335 -13.001706 -19.654144 -8.884444 3.215951 23.563410 21.592265 17.577835 0.000005 -0.000002 -0.000001 -3.391870 5.741647 -3.301555 -0.000002 0.000001 -0.000002 0.000004 -0.000002 0.000001 0.000000 0.000001 0.000002 
29.233398 -9.233962 9.998515 0.000000 0.000000 0.000000 -0.270531 -5.475511 3.320604 -8.058870 22.542460 -4.122092 0.370946 -11.599875 1.188540 7.567204 -7.598591 5.785107 291.793850 31.433798 340.233169 -165.469187 -23.791576 -40.685121 9.033945 -53.347435 36.839503 0.000005 -0.000002 -0.000001 11.850610 -40.929424 -12.862122 -21.900879 52.027511 -56.651040 56.436665 -25.861085 6.724588 20.633276 22.234467 38.224068 3.981581 8.638676 -11.109163 -19.920064 -8.935150 3.262420 26.690984 21.966688 16.827756 0.000001 -0.000001 -0.000001 -3.391873 5.741646 -3.301558 -0.000001 -0.000001 0.000001 0.000002 -0.000003 0.000003 0.000006 -0.000000 -0.000002 
29.233398 -9.233962 9.998515 0.000000 0.000000 0.000000 -0.068241 -7.324329 2.770798 -8.417269 26.435410 -3.609003 0.370941 -11.599874 1.188544 7.642563 -7.556000 5.831252 291.645089 31.654170 340.466352 -157.777343 -9.823666 -45.161733 2.525540 -55.068762 38.297199 0.000003 -0.000000 -0.000001 11.850601 -40.929430 -12.862121 -20.225577 45.318872 -55.137433 41.987215 -30.035969 15.820470 20.430607 21.996257 37.998193 3.240855 6.661332 -8.685527 -20.185845 -8.985598 3.309092 30.586615 22.390929 15.760918 0.000005 -0.000003 0.000001 -3.391871 5.741646 -3.301557 -0.000001 -0.000000 0.000001 0.000004 -0.000004 0.000003 0.000003 0.000001 0.000002 
